<?xml version="1.0" standalone="no"?><!DOCTYPE svg PUBLIC "-//W3C//DTD SVG 1.1//EN" "http://www.w3.org/Graphics/SVG/1.1/DTD/svg11.dtd"><svg t="1751774702730" class="icon" viewBox="0 0 1024 1024" version="1.1" xmlns="http://www.w3.org/2000/svg" p-id="1883" xmlns:xlink="http://www.w3.org/1999/xlink" width="200" height="200"><path d="M318.86 717.72h-1.31c-11.05-0.02-19.98-8.99-19.96-20.04 0.02-11.03 8.97-19.96 20-19.96h1.26c56.1 0 103.59-7.74 149.37-24.32 54.86-19.88 109.39-53.34 166.71-102.29 59.12-56.41 103.54-115.82 132.04-176.6 22.22-47.4 27.43-80.17 29.15-91.01 4.64-30.64-1.13-35.34-1.38-35.53-9.57-7.14-31.97-11.75-44.04-13.01-14.84-1.1-42.18-3.08-74.03 0.83-36.65 4.5-69.76 15.71-98.42 33.33-0.38 0.23-0.77 0.45-1.16 0.66-0.46 0.43-2.92 3.1-5.79 13.08-2.63 9.15-4.53 20.53-6.54 32.58-0.7 4.18-1.42 8.51-2.18 12.78a20.005 20.005 0 0 1-14.97 15.93 20.008 20.008 0 0 1-20.61-7.29c-0.75-0.98-1.55-2.04-2.4-3.16-4-5.29-8.97-11.87-14.11-17.3-5.64-5.96-8.73-7.62-9.64-8.02-5.9-0.15-11.78 1.59-16.64 4.96-0.05 0.03-0.1 0.07-0.15 0.1-107.99 73.37-152 147.12-162.92 167.98-28.12 53.85-40.81 100.82-46.49 130.74-5.37 28.24-5.72 47.21-5.71 52.19 0.16 0.77 0.31 1.69 0.41 2.72 1.01 11-7.09 20.73-18.09 21.74-10.38 0.95-19.63-6.21-21.49-16.27-0.35-1.32-0.83-3.5-0.81-6.22-0.1-4.53-0.18-27.06 6.39-61.62 9-47.38 25.94-95.09 50.34-141.8 46.18-88.23 138.29-156.98 175.82-182.48 12.5-8.63 27.72-12.86 42.88-11.89l0.76 0.06c9.31 0.95 17.83 5.65 25.45 11.93 4.71-20.38 11.85-37.49 27.26-45.81 78.99-48.27 164.01-41.97 196.06-39.59 0.17 0.01 0.34 0.03 0.51 0.04 4.29 0.43 42.59 4.66 64.2 20.77 22.45 16.74 20.88 48.16 17.01 73.66 0 0.04-0.01 0.08-0.02 0.12-7.78 49.18-26.34 88.78-32.45 101.8-30.67 65.43-78.13 129-141.05 188.95-0.26 0.25-0.53 0.49-0.8 0.72-61.19 52.32-119.9 88.25-179.49 109.84-50.28 18.22-102.11 26.72-162.99 26.72z m-89.33-47.03v0z m347.35-400.81z m0.28-0.17z" fill="#333333" p-id="1884"></path><path d="M202.56 765.08c-4.04 0-8.11-1.22-11.64-3.75-8.97-6.44-11.03-18.94-4.59-27.91 131.68-183.5 276.58-313.86 469.81-422.67 9.62-5.42 21.82-2.01 27.24 7.61 5.42 9.62 2.01 21.82-7.61 27.24-89.87 50.61-167.6 105.04-237.6 166.39-79.23 69.44-150.98 149.49-219.33 244.75-3.91 5.44-10.04 8.34-16.27 8.34zM424.77 853c-10.21 0-25.85-1.85-48.14-9.03-0.77-0.25-1.23-0.41-1.95-0.74-1.03-0.42-12.09-4.79-33.21-7.56-20.5-2.69-54.9-4.36-102.37 2.89-10.92 1.67-21.12-5.83-22.79-16.75-1.67-10.92 5.83-21.12 16.75-22.79 96.05-14.67 147.74 3.57 156.57 7.11 23.79 7.58 35.64 7 38.33 6.72-3.64-15.81 0.37-27.15 4.47-33.95 8.42-13.97 22.39-18.38 26.1-19.34 27.17-7.32 48.05 5.68 56.46 14.86 24.48 25.04 51.06 30.82 51.33 30.87 0.25 0.05 0.51 0.1 0.76 0.16 14.09 3.34 20.72 1.91 22.31 1 0-0.03 0-0.05 0.01-0.08v0.07c0.07-0.04 0.14-0.08 0.19-0.12-0.05 0.04-0.13 0.13-0.18 0.21 0.01 0.27 0.02 0.91 0.02 0.91l19.95-1.42-19.8-2.85c0.65-4.51-4.42-17.79-9.05-25.78-0.65-1.13-1.2-2.32-1.62-3.56-4.81-14.05-1.89-24.64 1.41-31.06 6.92-13.47 20.03-17.98 22.59-18.75 37.52-11.25 76.53 5.56 81.65 7.9 89.07 37.53 106.95 96.52 107.67 99.02L753.79 842l0.07 0.25c-0.57-1.78-14.67-44.01-85.12-73.59-0.28-0.12-0.56-0.24-0.83-0.37-0.21-0.1-26.72-12.23-50.47-6.76 4.71 9.02 13.54 28.53 11.96 45.4-0.05 8.83-3.63 21.12-13.92 29.86-12.92 10.98-32.23 13.55-57.41 7.62-4.96-1.08-40.22-9.67-72.02-42.39-0.41-0.42-0.27-0.23-0.49-0.5-1.49-1.4-7.23-5.93-16.71-3.34-0.06 0.02-0.11 0.03-0.15 0.04-0.04 0.01-0.09 0.03-0.13 0.04-0.1 0.04 0.06 0.01-0.12 0.04-1.7 0.57-2.63 1.22-1.38 6.1l0.15 0.63c0.64 2.87 3.39 17.83-5.38 31.05-3.79 5.71-11.06 13-24.22 15.61-2.46 0.59-6.65 1.27-12.85 1.27z m2.72-39.95z m2.83-0.68z" fill="#333333" p-id="1885"></path></svg>