<?xml version="1.0" standalone="no"?><!DOCTYPE svg PUBLIC "-//W3C//DTD SVG 1.1//EN" "http://www.w3.org/Graphics/SVG/1.1/DTD/svg11.dtd"><svg t="1751774558084" class="icon" viewBox="0 0 1024 1024" version="1.1" xmlns="http://www.w3.org/2000/svg" p-id="1130" xmlns:xlink="http://www.w3.org/1999/xlink" width="200" height="200"><path d="M443.24 823.39c-56.55 0-109.71-22.02-149.69-62-39.98-39.98-62-93.14-62-149.69s22.02-109.71 62-149.69c82.54-82.54 216.84-82.54 299.38 0 82.54 82.54 82.54 216.84 0 299.38l-14.14-14.14 14.14 14.14c-39.98 39.98-93.14 62-149.69 62z m0-383.31c-43.97 0-87.93 16.73-121.41 50.21-32.43 32.43-50.29 75.54-50.29 121.41s17.86 88.98 50.29 121.41 75.54 50.29 121.41 50.29 88.98-17.86 121.41-50.29c66.94-66.94 66.94-175.87 0-242.81-33.47-33.47-77.44-50.21-121.41-50.21z" fill="#2c2c2c" p-id="1131"></path><path d="M443.61 906.95c-16.16 0-32.39-1.32-48.59-3.99-61.1-10.06-116.61-38.6-160.53-82.52-43.92-43.92-72.46-99.43-82.52-160.53-9.85-59.77-1.4-120.18 24.44-174.68 19.42-40.98 49.71-76.73 87.57-103.39l290.45-204.46c9.03-6.36 21.51-4.19 27.87 4.84 6.36 9.03 4.19 21.51-4.84 27.87L287.01 414.55c-32.23 22.69-57.98 53.06-74.45 87.81-22.33 47.12-29.63 99.35-21.12 151.05 8.7 52.8 33.36 100.77 71.34 138.75 37.97 37.97 85.95 62.64 138.75 71.34 51.7 8.52 103.94 1.22 151.05-21.12 34.76-16.47 65.12-42.22 87.81-74.45l204.46-290.45c6.36-9.03 18.83-11.2 27.87-4.84 9.03 6.36 11.2 18.83 4.84 27.87L673.1 790.96c-26.66 37.87-62.41 68.15-103.39 87.57-39.74 18.83-82.62 28.43-126.1 28.43z" fill="#2c2c2c" p-id="1132"></path><path d="M487.62 549.29c-14.46 0-29.36-3.42-43.34-10.08-12.26-5.84-23.34-14.03-32.04-23.69-7.39-8.21-6.73-20.85 1.48-28.25s20.85-6.73 28.25 1.48c5.21 5.78 11.95 10.74 19.51 14.34 11.84 5.64 24.92 7.54 35.89 5.2 5.32-1.13 14.87-4.34 19.05-13.11 7.17-15.06-5.87-36.88-28.48-47.65-6.96-3.32-14.15-5.32-21.36-5.97-11-0.98-19.13-10.7-18.14-21.7s10.7-19.12 21.7-18.14c11.96 1.07 23.74 4.33 35 9.7 19.92 9.49 35.92 24.59 45.08 42.52 9.91 19.42 10.75 40.72 2.31 58.44-8.44 17.73-25.51 30.5-46.84 35.03-5.87 1.25-11.94 1.87-18.08 1.87zM525.96 786.76c-5.16 0-10.27-0.44-15.26-1.34-21.45-3.86-38.92-16.09-47.92-33.54s-8.83-38.77 0.46-58.49c8.58-18.21 24.11-33.81 43.71-43.92 12.07-6.23 25.3-10.09 38.25-11.16 11.01-0.92 20.67 7.27 21.59 18.27 0.91 11.01-7.27 20.67-18.27 21.59-7.75 0.64-15.79 3.01-23.23 6.85-11.65 6.01-21.08 15.28-25.86 25.42-2.32 4.92-5.55 14.47-1.09 23.1 7.64 14.82 32.91 17.65 55.16 6.17 6.85-3.53 12.8-8.04 17.68-13.39 7.44-8.16 20.09-8.75 28.25-1.31 8.16 7.44 8.75 20.09 1.31 28.25-8.09 8.87-17.81 16.27-28.91 21.99-14.67 7.57-30.52 11.49-45.87 11.49zM386.08 699.59c-8.78 0-17.78-1.98-26.39-5.94-15.84-7.28-29.27-20.54-37.81-37.34s-11.35-35.46-7.91-52.55c3.73-18.54 14.74-33.68 30.2-41.55 15.46-7.87 34.18-7.85 51.37 0.05 15.84 7.28 29.27 20.54 37.81 37.33 8.54 16.8 11.36 35.46 7.91 52.55-3.73 18.54-14.74 33.68-30.2 41.55-7.71 3.92-16.24 5.89-24.98 5.89z m15.91-23.71h0.01-0.01z m-32.85-79.57c-2.24 0-4.58 0.43-6.83 1.57-6.16 3.13-8.36 9.99-9.13 13.79-1.65 8.18-0.06 17.84 4.35 26.51 4.41 8.67 11.29 15.65 18.87 19.13 3.53 1.62 10.37 3.87 16.52 0.74 10.7-5.44 12.93-24.28 4.78-40.31-4.41-8.67-11.29-15.65-18.87-19.13-2.24-1.03-5.81-2.31-9.7-2.31zM556.65 347.85c-5.51 0-11-2.27-14.95-6.71-7.34-8.25-6.6-20.9 1.65-28.24l157.69-140.25c8.25-7.34 20.9-6.6 28.24 1.65s6.6 20.9-1.65 28.24L569.94 342.79a19.928 19.928 0 0 1-13.28 5.06zM727.75 518.96c-4.73 0-9.47-1.67-13.28-5.06-8.25-7.34-8.99-19.98-1.65-28.24l140.25-157.69c7.34-8.25 19.98-8.99 28.24-1.65 8.25 7.34 8.99 19.98 1.65 28.24L742.71 512.25a19.96 19.96 0 0 1-14.95 6.71zM681.69 393.24c-5.12 0-10.24-1.95-14.14-5.86-7.81-7.81-7.81-20.47 0-28.28l168.3-168.3c7.81-7.81 20.47-7.81 28.28 0s7.81 20.47 0 28.28l-168.3 168.3a19.92 19.92 0 0 1-14.14 5.86z" fill="#2c2c2c" p-id="1133"></path></svg>