<?xml version="1.0" standalone="no"?><!DOCTYPE svg PUBLIC "-//W3C//DTD SVG 1.1//EN" "http://www.w3.org/Graphics/SVG/1.1/DTD/svg11.dtd"><svg t="1751774647796" class="icon" viewBox="0 0 1024 1024" version="1.1" xmlns="http://www.w3.org/2000/svg" p-id="1567" xmlns:xlink="http://www.w3.org/1999/xlink" width="200" height="200"><path d="M567.98 453.77c-5.12 0-10.24-1.95-14.14-5.86-7.81-7.81-7.81-20.47 0-28.28l183.98-183.98c3.91-3.91 3.15-8.45 2.64-10.21-0.51-1.77-2.28-6.02-7.66-7.25l-71.48-16.35c-32.77-7.49-66.52 2.22-90.28 25.99l-98.07 98.07c-7.81 7.81-20.47 7.81-28.28 0-7.81-7.81-7.81-20.47 0-28.28l98.07-98.07c16.36-16.36 36.77-28.4 59.01-34.8s45.92-7.06 68.48-1.9l71.48 16.35a50.395 50.395 0 0 1 37.19 35.18 50.39 50.39 0 0 1-12.79 49.56L582.15 447.92a19.92 19.92 0 0 1-14.14 5.86zM774.1 735.91a50.41 50.41 0 0 1-35.64-14.76L555.12 537.81c-7.81-7.81-7.81-20.47 0-28.28 7.81-7.81 20.47-7.81 28.28 0l183.34 183.34c3.91 3.91 8.45 3.14 10.21 2.64 1.77-0.51 6.02-2.28 7.25-7.66l16.35-71.48c7.49-32.77-2.22-66.52-25.99-90.28l-98.07-98.07c-7.81-7.81-7.81-20.47 0-28.28s20.47-7.81 28.28 0l98.07 98.07c16.36 16.36 28.4 36.77 34.8 59.01s7.06 45.92 1.9 68.48l-16.35 71.48a50.395 50.395 0 0 1-49.11 39.16zM406.37 798.03c-10.25 0-20.5-1.14-30.54-3.44l-71.48-16.35c-17.87-4.09-32.12-17.56-37.19-35.18s-0.17-36.6 12.79-49.56l183.98-183.98c7.81-7.81 20.47-7.81 28.28 0s7.81 20.47 0 28.28L308.23 721.78c-3.91 3.91-3.15 8.45-2.64 10.21 0.51 1.77 2.28 6.02 7.66 7.25l71.48 16.35c32.77 7.49 66.52-2.22 90.29-25.99l98.07-98.07c7.81-7.81 20.47-7.81 28.28 0 7.81 7.81 7.81 20.47 0 28.28l-98.07 98.07c-16.36 16.36-36.77 28.4-59.01 34.8a137.426 137.426 0 0 1-37.94 5.34zM356.07 562.94c-5.12 0-10.24-1.95-14.14-5.86l-98.07-98.07c-16.36-16.36-28.4-36.77-34.8-59.01s-7.06-45.92-1.9-68.48l16.35-71.48a50.395 50.395 0 0 1 35.18-37.19 50.39 50.39 0 0 1 49.56 12.79l183.98 183.98c7.81 7.81 7.81 20.47 0 28.28s-20.47 7.81-28.28 0L279.97 263.92c-3.91-3.91-8.44-3.14-10.21-2.64-1.77 0.51-6.02 2.28-7.25 7.66l-16.35 71.48c-7.49 32.77 2.22 66.52 25.99 90.28l98.07 98.07c7.81 7.81 7.81 20.47 0 28.28a19.92 19.92 0 0 1-14.14 5.86z" fill="#333333" p-id="1568"></path><path d="M523.67 558.89c-20.7 0-41.41-7.88-57.17-23.64-31.52-31.52-31.52-82.81 0-114.33 15.27-15.27 35.57-23.68 57.17-23.68s41.9 8.41 57.17 23.68 23.68 35.57 23.68 57.17-8.41 41.9-23.68 57.17c-15.76 15.76-36.46 23.64-57.17 23.64z m43.03-37.78h0.01-0.01z m-43.03-83.86c-10.46 0-20.92 3.98-28.88 11.94-15.93 15.93-15.93 41.84 0 57.77 15.93 15.92 41.84 15.92 57.77 0 15.93-15.93 15.93-41.84 0-57.77-7.96-7.96-18.42-11.94-28.88-11.94zM523.03 912.01c-11.05 0-20-8.95-20-20V804c0-11.05 8.95-20 20-20s20 8.95 20 20v88.01c0 11.05-8.95 20-20 20z" fill="#333333" p-id="1569"></path></svg>