<?xml version="1.0" standalone="no"?><!DOCTYPE svg PUBLIC "-//W3C//DTD SVG 1.1//EN" "http://www.w3.org/Graphics/SVG/1.1/DTD/svg11.dtd"><svg t="1751774665238" class="icon" viewBox="0 0 1024 1024" version="1.1" xmlns="http://www.w3.org/2000/svg" p-id="1724" xmlns:xlink="http://www.w3.org/1999/xlink" width="200" height="200"><path d="M467.11 756.93c-3.01 0-6.05-0.23-9.11-0.7-19.35-3-49.46-10.64-83.01-30.01-30.3-17.49-52.81-40.85-66.36-57.36-15.25-18.59-17.39-45.12-5.33-66.01l0.14-0.24c7.1-12.31 7.17-27.24 0.18-39.96-22.82-41.5-34.75-88.46-34.51-135.8 0.25-48.86 13.57-97.07 38.53-139.42 77.18-131 247.05-175.58 378.66-99.39 64.18 37.16 110.07 97.08 129.23 168.73 19.16 71.65 9.28 146.49-27.8 210.73l-17.32-10 17.32 10c-24.37 42.21-59.44 77.34-101.41 101.58-40.7 23.51-87.06 36.42-134.07 37.34-14.26 0.28-26.94 7.66-33.92 19.75l-0.92 1.59c-10.58 18.33-29.68 29.17-50.3 29.17z m80.56-566.14c-81.66 0-161.36 41.91-205.56 116.93-21.37 36.27-32.77 77.53-32.99 119.32-0.21 40.55 10.01 80.77 29.56 116.32 13.59 24.71 13.36 55.07-0.59 79.23l-0.14 0.24c-3.79 6.56-3.14 14.86 1.61 20.64 11.44 13.94 30.35 33.61 55.44 48.09 28.2 16.28 53.16 22.65 69.14 25.12 7.52 1.17 14.83-2.34 18.64-8.94l0.92-1.59c13.84-23.97 39.81-39.2 67.78-39.75 40.27-0.79 79.98-11.85 114.84-31.98 35.91-20.74 65.91-50.81 86.78-86.95 31.75-54.99 40.2-119.05 23.8-180.39-16.4-61.34-55.69-112.63-110.63-144.44-37.29-21.59-78.19-31.86-118.59-31.86z" fill="#333333" p-id="1725"></path><path d="M354.75 885.01c-21.01 0-42.29-5.34-61.76-16.58-59.18-34.17-79.53-110.12-45.37-169.3 5.52-9.57 17.75-12.84 27.32-7.32s12.84 17.75 7.32 27.32c-23.14 40.08-9.36 91.52 30.72 114.66s91.52 9.36 114.66-30.72l52.87-91.58c5.52-9.57 17.75-12.84 27.32-7.32s12.84 17.75 7.32 27.32l-52.87 91.58c-22.93 39.71-64.68 61.95-107.54 61.95z" fill="#333333" p-id="1726"></path><path d="M436.09 829.02c-21.39 0-65.89-4.77-114.64-38.3-9.1-6.26-11.41-18.71-5.15-27.81 6.26-9.1 18.71-11.41 27.81-5.15 53.11 36.52 97.75 31.16 99.62 30.91l-0.14 0.02 5.8 39.58c-0.66 0.1-5.42 0.75-13.3 0.75zM585.52 562.14c-14.93 0-29.72-3.66-43.21-10.87l-83.46-44.57c-0.19-0.1-0.39-0.21-0.58-0.32l-39.96-23.07c-31.58-18.24-42.44-58.77-24.21-90.35 8.81-15.26 23.08-26.18 40.18-30.76 17.1-4.58 34.92-2.25 50.18 6.55 21.63 12.49 34.25 35.81 32.94 60.87-0.58 11.03-9.99 19.49-21.02 18.93-11.03-0.58-19.51-9.99-18.93-21.02 0.52-9.96-4.46-19.21-13-24.14-6-3.47-13.04-4.38-19.82-2.56-6.78 1.82-12.42 6.12-15.89 12.13-7.21 12.48-2.91 28.5 9.57 35.71l39.67 22.91 83.17 44.41c24.91 13.3 55.44 4.54 69.5-19.94 5.5-9.58 17.73-12.88 27.3-7.38 9.58 5.5 12.88 17.73 7.38 27.3-11.97 20.83-31.27 35.95-54.36 42.58a92.036 92.036 0 0 1-25.45 3.6zM392.3 640.61c-3.39 0-6.83-0.86-9.98-2.68-9.57-5.52-12.84-17.75-7.32-27.32l43.9-76.04c5.52-9.57 17.75-12.84 27.32-7.32s12.84 17.75 7.32 27.32l-43.9 76.04c-3.7 6.42-10.43 10-17.34 10z" fill="#333333" p-id="1727"></path><path d="M457.92 678.5c-3.39 0-6.83-0.86-9.98-2.68-9.57-5.52-12.84-17.75-7.32-27.32l122.1-211.48c5.52-9.57 17.75-12.84 27.32-7.32s12.84 17.75 7.32 27.32L475.26 668.5c-3.7 6.42-10.43 10-17.34 10z" fill="#333333" p-id="1728"></path></svg>