<?xml version="1.0" standalone="no"?><!DOCTYPE svg PUBLIC "-//W3C//DTD SVG 1.1//EN" "http://www.w3.org/Graphics/SVG/1.1/DTD/svg11.dtd"><svg t="1751774640943" class="icon" viewBox="0 0 1024 1024" version="1.1" xmlns="http://www.w3.org/2000/svg" p-id="1409" xmlns:xlink="http://www.w3.org/1999/xlink" width="200" height="200"><path d="M512.5 510c-53.65 0-104.32-5.65-142.7-15.91C322.16 481.35 298 462.48 298 438c0-41.22 68.47-58.91 125.91-66.48 10.95-1.45 21 6.26 22.44 17.21 1.45 10.95-6.26 21-17.21 22.44-26.41 3.48-49.41 8.61-66.52 14.82-13.35 4.85-20.24 9.37-23.24 12.04 4.73 4.29 18.68 12.43 49.98 19.72 33.93 7.9 77.66 12.25 123.13 12.25s89.21-4.35 123.13-12.25c31.33-7.29 45.28-15.45 50-19.73-6.9-6.16-33.36-20.56-99.67-28.06-10.98-1.24-18.87-11.14-17.63-22.12 1.24-10.98 11.14-18.87 22.12-17.63 36.5 4.13 67.86 11.08 90.69 20.12 30.43 12.04 45.86 28.08 45.86 47.67 0 24.48-24.16 43.35-71.8 56.09-38.37 10.26-89.05 15.91-142.7 15.91z m174.9-69.99h0.01-0.01z" fill="#333333" p-id="1410"></path><path d="M164.2 781.82c-5.28 0-10.54-2.07-14.47-6.19-7.63-7.99-7.33-20.65 0.66-28.28 65.05-62.09 101.43-143.03 120.49-199.99 20.91-62.48 26.18-110.72 26.23-111.2 1.16-10.98 11-18.95 21.98-17.79 10.98 1.15 18.95 10.98 17.8 21.96-0.22 2.1-5.63 52.28-27.74 118.71-12.99 39.03-29.11 75.66-47.9 108.85-23.66 41.8-51.67 78.27-83.24 108.4-3.87 3.7-8.84 5.53-13.81 5.53zM860 781.82c-4.96 0-9.93-1.84-13.81-5.53-31.57-30.14-59.58-66.61-83.24-108.4-18.79-33.19-34.91-69.82-47.9-108.85-22.11-66.43-27.52-116.61-27.74-118.71-1.15-10.99 6.83-20.82 17.82-21.97 10.98-1.15 20.81 6.82 21.97 17.8 0.05 0.48 5.33 48.72 26.23 111.2 19.06 56.97 55.44 137.9 120.49 199.99 7.99 7.63 8.29 20.29 0.66 28.28-3.93 4.12-9.2 6.19-14.47 6.19z" fill="#333333" p-id="1411"></path><path d="M450.23 798.29c-2.32 0-4.48-0.14-6.44-0.4-41.52-3.62-57.54-38.88-60.46-58.15-11.69-49.15-15.85-101.6-16.25-106.92-2.92-26.49-16.92-30.31-20.49-30.85-0.25 0 0.04 0-0.49-0.06-32.03-3.05-66.98 29.25-67.32 29.58-8 7.61-20.66 7.3-28.28-0.71-7.61-8-7.3-20.66 0.71-28.28 0.48-0.46 12.07-11.41 29.29-21.68 24.19-14.43 47.43-20.75 69.09-18.76 17.74 1.25 51.97 16.71 57.3 66.82l0.06 0.67c0.04 0.53 4.04 54.04 15.5 101.78 0.19 0.81 0.29 1.23 0.38 2.01 0.15 0.87 1.33 7.16 5.16 13.19 4.55 7.17 10.78 10.83 19.59 11.52 0.68 0.05 0.66 0.02 1.18 0.12 1.12 0.07 6.72 0.23 12.96-2.77 9.47-4.56 16.6-14.42 21.18-29.29 0.17-0.57 19.71-65.29 27.4-110.47l0.09-0.48c0.61-3.1 6.58-30.76 29.07-45.7 12.34-8.2 27.25-10.89 43.17-7.81 16.33 2.07 45.69 17.13 58.6 61.8 0.06 0.21 0.12 0.43 0.17 0.64 0.03 0.12 4.36 16.64 13.53 31.3 3.83 6.12 13.99 22.36 30 19.03h0.02c0.07-0.02 0.16-0.04 0.26-0.07 0 0-0.02 0 0 0 2.63-0.79 15.05-5.72 19.09-28.79 1.9-10.88 12.27-18.16 23.15-16.25 10.88 1.9 18.16 12.27 16.25 23.15-4.7 26.85-17.49 41.86-27.39 49.72-10.59 8.4-20.54 10.88-23.35 11.44-16.38 3.38-47.45 2.89-72.5-37.89-11.43-18.6-16.9-38.24-17.74-41.4-5.09-17.47-12.74-25.72-18.26-29.58-3.47-2.42-6.64-3.39-6.66-3.39-0.78-0.07-1.56-0.18-2.33-0.34-8.59-1.79-14.11 0.2-19.05 6.86-4.59 6.2-6.49 13.68-6.78 14.94-8.16 47.65-27.67 112.26-28.5 114.99-14.86 48.29-49.56 60.49-70.91 60.49z m-1.26-40.07z m236.14-83.84l-0.12 0.03c0.05-0.01 0.09-0.02 0.12-0.03zM512 432.79h-0.14c-11.05-0.08-19.94-9.09-19.86-20.14 0.3-44.08-4.24-85.52-13.51-123.18-2.64-10.73 3.92-21.56 14.64-24.2 10.73-2.64 21.56 3.92 24.2 14.64 10.06 40.88 14.99 85.63 14.67 133.02-0.08 11-9.02 19.86-20 19.86zM476.3 240.93c-7.64 0-14.93-4.4-18.26-11.82-11.78-26.26-22.3-39.24-22.4-39.37l0.07 0.08 30.69-25.65c1.4 1.68 14.11 17.3 28.14 48.57 4.52 10.08 0.02 21.91-10.06 26.43a19.99 19.99 0 0 1-8.18 1.76zM359.06 340.5c-9.8 0-18.36-7.21-19.78-17.2-4.49-31.73-20.47-56.46-47.51-73.5-21.3-13.43-41.84-17.03-42.05-17.07-10.9-1.76-18.28-12.02-16.52-22.92 1.76-10.9 12.06-18.31 22.97-16.55 1.11 0.18 27.49 4.58 55.43 21.77 37.8 23.26 61.06 58.76 67.27 102.67 1.55 10.94-6.06 21.06-17 22.6-0.95 0.13-1.89 0.2-2.83 0.2zM671 340.5c-2.31 0-4.65-0.4-6.94-1.25-10.36-3.84-15.64-15.34-11.81-25.7 12.32-33.25 31.13-61.18 55.93-83 23.18-20.4 46.74-31.09 62.43-36.47 10.45-3.58 21.82 1.98 25.4 12.43 3.58 10.45-1.98 21.82-12.43 25.4-25 8.57-70.43 32.38-93.82 95.52-2.99 8.07-10.63 13.06-18.76 13.06zM596.72 233c-0.67 0-1.34-0.03-2.01-0.1-10.99-1.1-19.01-10.9-17.91-21.89 2.55-25.54 11.53-48.52 25.96-66.43 11.04-13.7 21.5-19.93 23.48-21.04l19.51 34.92 0.25-0.15c-0.06 0.04-6.47 3.94-13.23 12.8-9.01 11.82-14.45 26.58-16.18 43.88-1.03 10.31-9.73 18.01-19.88 18.01z" fill="#333333" p-id="1412"></path></svg>