<?xml version="1.0" standalone="no"?><!DOCTYPE svg PUBLIC "-//W3C//DTD SVG 1.1//EN" "http://www.w3.org/Graphics/SVG/1.1/DTD/svg11.dtd"><svg t="1752289794061" class="icon" viewBox="0 0 1024 1024" version="1.1" xmlns="http://www.w3.org/2000/svg" p-id="7456" xmlns:xlink="http://www.w3.org/1999/xlink" width="200" height="200"><path d="M512 512m-512 0a512 512 0 1 0 1024 0 512 512 0 1 0-1024 0Z" fill="#ff7777" p-id="7457" data-spm-anchor-id="a313x.search_index.0.i6.48373a81DcpaxG" class="selected"></path><path d="M529.088 64a209.088 209.088 0 0 1 209.024 209.088v477.824a209.088 209.088 0 1 1-418.112 0V273.088A209.088 209.088 0 0 1 529.088 64z" fill="#333333" p-id="7458"></path><path d="M529.088 840.512a89.6 89.6 0 1 0 0-179.2 89.6 89.6 0 0 0 0 179.2z" fill="#707070" p-id="7459"></path><path d="M529.088 601.6a89.6 89.6 0 1 0 0-179.2 89.6 89.6 0 0 0 0 179.2z" fill="#707070" p-id="7460"></path><path d="M529.088 362.688a89.6 89.6 0 1 0 0-179.2 89.6 89.6 0 0 0 0 179.2z" fill="#FF3C3C" p-id="7461"></path></svg>